<mxfile host="app.diagrams.net" agent="Mozilla/5.0 (Macintosh; Intel Mac OS X 10_15_7) AppleWebKit/605.1.15 (KHTML, like Gecko) Version/17.6 Safari/605.1.15" version="24.7.16">
  <diagram name="Page-1" id="JkBH68v1kmW2dShaF_-4">
    <mxGraphModel dx="2049" dy="1204" grid="0" gridSize="10" guides="1" tooltips="1" connect="1" arrows="1" fold="1" page="1" pageScale="1" pageWidth="1169" pageHeight="1654" background="#FFFFFF" math="0" shadow="0">
      <root>
        <mxCell id="0" />
        <mxCell id="1" parent="0" />
        <mxCell id="5GDT1VdVrxaByCDPPIs3-1" value="" style="swimlane;startSize=0;strokeWidth=2;rounded=1;swimlaneLine=0;fillColor=none;labelBackgroundColor=none;perimeterSpacing=2;" vertex="1" parent="1">
          <mxGeometry x="270" y="80" width="860" height="958" as="geometry" />
        </mxCell>
        <mxCell id="5GDT1VdVrxaByCDPPIs3-2" value="LOGIN" style="ellipse;whiteSpace=wrap;html=1;fillColor=none;strokeWidth=2;fontSize=14;fontStyle=1;labelBackgroundColor=none;" vertex="1" parent="5GDT1VdVrxaByCDPPIs3-1">
          <mxGeometry x="58" y="124" width="154" height="80" as="geometry" />
        </mxCell>
        <mxCell id="5GDT1VdVrxaByCDPPIs3-3" value="Selecionar Microorganismo" style="ellipse;whiteSpace=wrap;fillColor=none;strokeWidth=2;fontSize=14;fontStyle=1;html=1;align=center;labelBackgroundColor=none;" vertex="1" parent="5GDT1VdVrxaByCDPPIs3-1">
          <mxGeometry x="58" y="277" width="154" height="88" as="geometry" />
        </mxCell>
        <mxCell id="5GDT1VdVrxaByCDPPIs3-4" value="Listar Bactérias / Leveduras" style="ellipse;whiteSpace=wrap;html=1;fillColor=none;strokeWidth=2;fontSize=14;fontStyle=1;labelBackgroundColor=none;" vertex="1" parent="5GDT1VdVrxaByCDPPIs3-1">
          <mxGeometry x="58" y="445" width="154" height="80" as="geometry" />
        </mxCell>
        <mxCell id="5GDT1VdVrxaByCDPPIs3-5" value="Perfil" style="ellipse;whiteSpace=wrap;html=1;fillColor=none;strokeWidth=2;fontSize=14;fontStyle=1;labelBackgroundColor=none;" vertex="1" parent="5GDT1VdVrxaByCDPPIs3-1">
          <mxGeometry x="52" y="722" width="154" height="80" as="geometry" />
        </mxCell>
        <mxCell id="5GDT1VdVrxaByCDPPIs3-6" value="Credências Inválidas" style="ellipse;whiteSpace=wrap;html=1;fillColor=none;strokeWidth=2;fontSize=14;fontStyle=1;labelBackgroundColor=none;" vertex="1" parent="5GDT1VdVrxaByCDPPIs3-1">
          <mxGeometry x="357" y="28" width="162" height="80" as="geometry" />
        </mxCell>
        <mxCell id="5GDT1VdVrxaByCDPPIs3-7" value="&amp;lt;&amp;lt;extend&amp;gt;&amp;gt;" style="endArrow=open;startArrow=none;endFill=0;startFill=0;endSize=8;html=1;verticalAlign=bottom;dashed=1;labelBackgroundColor=none;rounded=0;strokeWidth=2;exitX=0;exitY=0.5;exitDx=0;exitDy=0;entryX=0.919;entryY=0.228;entryDx=0;entryDy=0;fontColor=default;spacingBottom=3;labelPosition=left;verticalLabelPosition=top;align=right;entryPerimeter=0;fontSize=12;" edge="1" parent="5GDT1VdVrxaByCDPPIs3-1" source="5GDT1VdVrxaByCDPPIs3-6" target="5GDT1VdVrxaByCDPPIs3-2">
          <mxGeometry width="160" relative="1" as="geometry">
            <mxPoint x="275" y="250" as="sourcePoint" />
            <mxPoint x="435" y="250" as="targetPoint" />
          </mxGeometry>
        </mxCell>
        <mxCell id="5GDT1VdVrxaByCDPPIs3-8" value="Recuperar Palavra&amp;nbsp;&lt;div&gt;Pass&lt;/div&gt;" style="ellipse;whiteSpace=wrap;html=1;fillColor=none;strokeWidth=2;fontSize=14;fontStyle=1;labelBackgroundColor=none;" vertex="1" parent="5GDT1VdVrxaByCDPPIs3-1">
          <mxGeometry x="357" y="126" width="162" height="80" as="geometry" />
        </mxCell>
        <mxCell id="5GDT1VdVrxaByCDPPIs3-9" value="&amp;lt;&amp;lt;extend&amp;gt;&amp;gt;" style="endArrow=open;startArrow=none;endFill=0;startFill=0;endSize=8;html=1;verticalAlign=bottom;dashed=1;labelBackgroundColor=none;rounded=0;strokeWidth=2;exitX=0;exitY=0.5;exitDx=0;exitDy=0;entryX=1;entryY=0.5;entryDx=0;entryDy=0;fontColor=default;spacingBottom=3;labelPosition=center;verticalLabelPosition=top;align=center;fontSize=12;" edge="1" parent="5GDT1VdVrxaByCDPPIs3-1" source="5GDT1VdVrxaByCDPPIs3-8" target="5GDT1VdVrxaByCDPPIs3-2">
          <mxGeometry width="160" relative="1" as="geometry">
            <mxPoint x="271" y="341" as="sourcePoint" />
            <mxPoint x="202" y="173" as="targetPoint" />
          </mxGeometry>
        </mxCell>
        <mxCell id="5GDT1VdVrxaByCDPPIs3-10" value="Impressão Digital" style="ellipse;whiteSpace=wrap;html=1;fillColor=none;strokeWidth=2;fontSize=14;fontStyle=1;labelBackgroundColor=none;" vertex="1" parent="5GDT1VdVrxaByCDPPIs3-1">
          <mxGeometry x="357" y="222" width="162" height="80" as="geometry" />
        </mxCell>
        <mxCell id="5GDT1VdVrxaByCDPPIs3-11" value="&amp;lt;&amp;lt;extend&amp;gt;&amp;gt;" style="endArrow=open;startArrow=none;endFill=0;startFill=0;endSize=8;html=1;verticalAlign=bottom;dashed=1;labelBackgroundColor=none;rounded=0;strokeWidth=2;exitX=0;exitY=0.5;exitDx=0;exitDy=0;entryX=0.909;entryY=0.825;entryDx=0;entryDy=0;fontColor=default;spacingBottom=3;entryPerimeter=0;labelPosition=right;verticalLabelPosition=top;align=left;fontSize=12;" edge="1" parent="5GDT1VdVrxaByCDPPIs3-1" target="5GDT1VdVrxaByCDPPIs3-2">
          <mxGeometry width="160" relative="1" as="geometry">
            <mxPoint x="357.0000000000023" y="264" as="sourcePoint" />
            <mxPoint x="206" y="192" as="targetPoint" />
          </mxGeometry>
        </mxCell>
        <mxCell id="5GDT1VdVrxaByCDPPIs3-18" value="Detalhes" style="ellipse;whiteSpace=wrap;html=1;fillColor=none;strokeWidth=2;fontSize=14;fontStyle=1;labelBackgroundColor=none;" vertex="1" parent="5GDT1VdVrxaByCDPPIs3-1">
          <mxGeometry x="357" y="445" width="162" height="80" as="geometry" />
        </mxCell>
        <mxCell id="5GDT1VdVrxaByCDPPIs3-19" value="&amp;lt;&amp;lt;include&amp;gt;&amp;gt;" style="endArrow=open;startArrow=none;endFill=0;startFill=0;endSize=8;html=1;verticalAlign=top;dashed=1;labelBackgroundColor=none;rounded=0;strokeWidth=2;fontColor=default;spacingBottom=3;labelPosition=right;verticalLabelPosition=bottom;align=left;exitX=1;exitY=0.5;exitDx=0;exitDy=0;entryX=0;entryY=0.5;entryDx=0;entryDy=0;fontSize=12;" edge="1" parent="5GDT1VdVrxaByCDPPIs3-1" source="5GDT1VdVrxaByCDPPIs3-4" target="5GDT1VdVrxaByCDPPIs3-18">
          <mxGeometry width="160" relative="1" as="geometry">
            <mxPoint x="228" y="807" as="sourcePoint" />
            <mxPoint x="444" y="739" as="targetPoint" />
          </mxGeometry>
        </mxCell>
        <mxCell id="5GDT1VdVrxaByCDPPIs3-20" value="Pesquisar" style="ellipse;whiteSpace=wrap;html=1;fillColor=none;strokeWidth=2;fontSize=14;fontStyle=1;labelBackgroundColor=none;" vertex="1" parent="5GDT1VdVrxaByCDPPIs3-1">
          <mxGeometry x="655" y="445" width="162" height="80" as="geometry" />
        </mxCell>
        <mxCell id="5GDT1VdVrxaByCDPPIs3-21" value="&amp;lt;&amp;lt;extend&amp;gt;&amp;gt;" style="endArrow=open;startArrow=none;endFill=0;startFill=0;endSize=8;html=1;verticalAlign=top;dashed=1;labelBackgroundColor=none;rounded=0;strokeWidth=2;exitX=0;exitY=0.5;exitDx=0;exitDy=0;fontColor=default;spacingBottom=3;labelPosition=center;verticalLabelPosition=bottom;align=center;edgeStyle=orthogonalEdgeStyle;fontSize=12;entryX=0.5;entryY=1;entryDx=0;entryDy=0;" edge="1" parent="5GDT1VdVrxaByCDPPIs3-1" source="5GDT1VdVrxaByCDPPIs3-20" target="5GDT1VdVrxaByCDPPIs3-4">
          <mxGeometry width="160" relative="1" as="geometry">
            <mxPoint x="622.7399999999914" y="687.65" as="sourcePoint" />
            <mxPoint x="226" y="513" as="targetPoint" />
            <Array as="points">
              <mxPoint x="656" y="566" />
              <mxPoint x="135" y="566" />
            </Array>
          </mxGeometry>
        </mxCell>
        <mxCell id="5GDT1VdVrxaByCDPPIs3-22" value="&amp;lt;&amp;lt;extend&amp;gt;&amp;gt;" style="endArrow=open;startArrow=none;endFill=0;startFill=0;endSize=8;html=1;verticalAlign=bottom;dashed=1;labelBackgroundColor=none;rounded=0;strokeWidth=2;exitX=0;exitY=0.5;exitDx=0;exitDy=0;entryX=1;entryY=0.5;entryDx=0;entryDy=0;fontColor=default;spacingBottom=3;labelPosition=center;verticalLabelPosition=top;align=center;fontSize=12;" edge="1" parent="5GDT1VdVrxaByCDPPIs3-1" source="5GDT1VdVrxaByCDPPIs3-20" target="5GDT1VdVrxaByCDPPIs3-18">
          <mxGeometry width="160" relative="1" as="geometry">
            <mxPoint x="719" y="577" as="sourcePoint" />
            <mxPoint x="560" y="503" as="targetPoint" />
          </mxGeometry>
        </mxCell>
        <mxCell id="5GDT1VdVrxaByCDPPIs3-23" value="Detalhes do&amp;nbsp;&lt;div&gt;Utilizador&lt;/div&gt;" style="ellipse;whiteSpace=wrap;html=1;fillColor=none;strokeWidth=2;fontSize=14;fontStyle=1;labelBackgroundColor=none;" vertex="1" parent="5GDT1VdVrxaByCDPPIs3-1">
          <mxGeometry x="363" y="625" width="162" height="80" as="geometry" />
        </mxCell>
        <mxCell id="5GDT1VdVrxaByCDPPIs3-24" value="&amp;lt;&amp;lt;include&amp;gt;&amp;gt;" style="endArrow=open;startArrow=none;endFill=0;startFill=0;endSize=8;html=1;verticalAlign=bottom;dashed=1;labelBackgroundColor=none;rounded=0;strokeWidth=2;fontColor=default;spacingBottom=3;labelPosition=left;verticalLabelPosition=top;align=right;exitX=0.965;exitY=0.283;exitDx=0;exitDy=0;entryX=0;entryY=0.5;entryDx=0;entryDy=0;fontSize=12;exitPerimeter=0;" edge="1" parent="5GDT1VdVrxaByCDPPIs3-1" source="5GDT1VdVrxaByCDPPIs3-5" target="5GDT1VdVrxaByCDPPIs3-23">
          <mxGeometry width="160" relative="1" as="geometry">
            <mxPoint x="322" y="723" as="sourcePoint" />
            <mxPoint x="538" y="652" as="targetPoint" />
          </mxGeometry>
        </mxCell>
        <mxCell id="5GDT1VdVrxaByCDPPIs3-25" value="Alterar Palavra&lt;div&gt;Passe&lt;/div&gt;" style="ellipse;whiteSpace=wrap;html=1;fillColor=none;strokeWidth=2;fontSize=14;fontStyle=1;labelBackgroundColor=none;" vertex="1" parent="5GDT1VdVrxaByCDPPIs3-1">
          <mxGeometry x="363" y="733" width="162" height="80" as="geometry" />
        </mxCell>
        <mxCell id="5GDT1VdVrxaByCDPPIs3-26" value="&amp;lt;&amp;lt;extend&amp;gt;&amp;gt;" style="endArrow=open;startArrow=none;endFill=0;startFill=0;endSize=8;html=1;verticalAlign=bottom;dashed=1;labelBackgroundColor=none;rounded=0;strokeWidth=2;exitX=0;exitY=0.5;exitDx=0;exitDy=0;entryX=0.961;entryY=0.65;entryDx=0;entryDy=0;fontColor=default;spacingBottom=3;entryPerimeter=0;labelPosition=right;verticalLabelPosition=top;align=left;fontSize=12;" edge="1" parent="5GDT1VdVrxaByCDPPIs3-1" source="5GDT1VdVrxaByCDPPIs3-25" target="5GDT1VdVrxaByCDPPIs3-5">
          <mxGeometry width="160" relative="1" as="geometry">
            <mxPoint x="276" y="1020" as="sourcePoint" />
            <mxPoint x="200" y="773" as="targetPoint" />
          </mxGeometry>
        </mxCell>
        <mxCell id="5GDT1VdVrxaByCDPPIs3-27" value="Terminar Sessão" style="ellipse;whiteSpace=wrap;html=1;fillColor=none;strokeWidth=2;fontSize=14;fontStyle=1;labelBackgroundColor=none;" vertex="1" parent="5GDT1VdVrxaByCDPPIs3-1">
          <mxGeometry x="363" y="845" width="162" height="80" as="geometry" />
        </mxCell>
        <mxCell id="5GDT1VdVrxaByCDPPIs3-28" value="&amp;lt;&amp;lt;extend&amp;gt;&amp;gt;" style="endArrow=open;startArrow=none;endFill=0;startFill=0;endSize=8;html=1;verticalAlign=top;dashed=1;labelBackgroundColor=none;rounded=0;strokeWidth=2;exitX=0;exitY=0.5;exitDx=0;exitDy=0;entryX=1;entryY=1;entryDx=0;entryDy=0;fontColor=default;spacingBottom=3;labelPosition=left;verticalLabelPosition=bottom;align=right;fontSize=12;" edge="1" parent="5GDT1VdVrxaByCDPPIs3-1" source="5GDT1VdVrxaByCDPPIs3-27" target="5GDT1VdVrxaByCDPPIs3-5">
          <mxGeometry width="160" relative="1" as="geometry">
            <mxPoint x="276" y="1119" as="sourcePoint" />
            <mxPoint x="200" y="873" as="targetPoint" />
          </mxGeometry>
        </mxCell>
        <mxCell id="5GDT1VdVrxaByCDPPIs3-29" value="&lt;div&gt;Normal&lt;/div&gt;" style="shape=umlActor;verticalLabelPosition=top;verticalAlign=bottom;html=1;outlineConnect=0;strokeWidth=4;labelPosition=center;align=center;spacingTop=3;spacingBottom=4;fontSize=19;fontStyle=0;spacing=8;perimeterSpacing=0;labelBackgroundColor=none;labelBorderColor=none;fillColor=none;" vertex="1" parent="1">
          <mxGeometry x="29" y="518" width="92" height="142" as="geometry" />
        </mxCell>
        <mxCell id="5GDT1VdVrxaByCDPPIs3-30" value="" style="endArrow=none;html=1;rounded=0;entryX=0;entryY=0.5;entryDx=0;entryDy=0;fontColor=default;strokeWidth=2;exitX=1;exitY=0.3333333333333333;exitDx=0;exitDy=0;exitPerimeter=0;labelBackgroundColor=none;" edge="1" parent="1" source="5GDT1VdVrxaByCDPPIs3-29" target="5GDT1VdVrxaByCDPPIs3-3">
          <mxGeometry width="50" height="50" relative="1" as="geometry">
            <mxPoint x="87" y="369" as="sourcePoint" />
            <mxPoint x="372" y="491" as="targetPoint" />
          </mxGeometry>
        </mxCell>
        <mxCell id="5GDT1VdVrxaByCDPPIs3-31" value="" style="endArrow=none;html=1;rounded=0;exitX=1;exitY=0.3333333333333333;exitDx=0;exitDy=0;exitPerimeter=0;entryX=0;entryY=0.5;entryDx=0;entryDy=0;fontColor=default;strokeWidth=2;labelBackgroundColor=none;" edge="1" parent="1" source="5GDT1VdVrxaByCDPPIs3-29" target="5GDT1VdVrxaByCDPPIs3-4">
          <mxGeometry width="50" height="50" relative="1" as="geometry">
            <mxPoint x="84" y="601" as="sourcePoint" />
            <mxPoint x="367" y="616" as="targetPoint" />
          </mxGeometry>
        </mxCell>
        <mxCell id="5GDT1VdVrxaByCDPPIs3-32" value="" style="endArrow=none;html=1;rounded=0;exitX=1;exitY=0.3333333333333333;exitDx=0;exitDy=0;exitPerimeter=0;entryX=0;entryY=0.5;entryDx=0;entryDy=0;fontColor=default;strokeWidth=2;labelBackgroundColor=none;" edge="1" parent="1" source="5GDT1VdVrxaByCDPPIs3-29" target="5GDT1VdVrxaByCDPPIs3-5">
          <mxGeometry width="50" height="50" relative="1" as="geometry">
            <mxPoint x="84" y="703" as="sourcePoint" />
            <mxPoint x="367" y="718" as="targetPoint" />
          </mxGeometry>
        </mxCell>
        <mxCell id="5GDT1VdVrxaByCDPPIs3-33" value="" style="endArrow=none;html=1;rounded=0;exitX=1;exitY=0.3333333333333333;exitDx=0;exitDy=0;exitPerimeter=0;entryX=0;entryY=0.5;entryDx=0;entryDy=0;fontColor=default;strokeWidth=2;labelBackgroundColor=none;" edge="1" parent="1" source="5GDT1VdVrxaByCDPPIs3-29" target="5GDT1VdVrxaByCDPPIs3-2">
          <mxGeometry width="50" height="50" relative="1" as="geometry">
            <mxPoint x="322" y="435" as="sourcePoint" />
            <mxPoint x="372" y="385" as="targetPoint" />
          </mxGeometry>
        </mxCell>
      </root>
    </mxGraphModel>
  </diagram>
</mxfile>
